<?xml version="1.0" standalone="no"?>
<!DOCTYPE svg PUBLIC "-//W3C//DTD SVG 20010904//EN"
 "http://www.w3.org/TR/2001/REC-SVG-20010904/DTD/svg10.dtd">
<svg version="1.0" xmlns="http://www.w3.org/2000/svg"
 width="700.000000pt" height="700.000000pt" viewBox="0 0 700.000000 700.000000"
 preserveAspectRatio="xMidYMid meet">
<metadata>
Created by potrace 1.14, written by Peter Selinger 2001-2017
</metadata>
<g transform="translate(0.000000,700.000000) scale(0.100000,-0.100000)"
fill="#000000" stroke="none">
<path d="M270 3480 l0 -1690 295 0 295 0 0 575 0 575 90 -78 c211 -181 439
-285 709 -323 112 -16 340 -6 451 20 395 90 724 348 904 709 34 68 96 236 96
261 0 8 -89 11 -304 11 l-304 0 -32 -52 c-58 -95 -113 -159 -183 -214 -249
-195 -569 -214 -845 -53 -31 19 -93 70 -138 115 -70 69 -89 95 -132 185 -118
243 -109 478 27 714 42 73 167 198 244 244 274 162 595 142 845 -54 77 -60
157 -159 199 -247 l28 -58 303 0 304 0 -7 33 c-16 76 -70 219 -117 308 -183
351 -510 598 -908 685 -67 15 -124 19 -275 18 -179 -1 -197 -2 -305 -31 -220
-59 -387 -147 -560 -295 l-90 -78 0 205 0 205 -295 0 -295 0 0 -1690z"/>
<path d="M3660 4645 l0 -525 530 0 530 0 29 58 c88 174 228 297 416 366 106
38 295 48 408 21 459 -111 696 -606 493 -1030 -96 -202 -277 -349 -493 -400
-108 -26 -302 -17 -403 19 -161 57 -315 181 -394 319 l-39 67 -538 0 -539 0 0
-875 0 -875 290 0 290 0 0 717 0 717 36 -60 c127 -210 316 -384 544 -499 85
-43 244 -96 345 -116 107 -21 398 -18 505 5 259 56 482 177 665 361 258 257
389 572 389 935 0 275 -70 506 -219 731 -193 290 -488 490 -835 565 -120 26
-410 26 -530 0 -363 -79 -679 -302 -864 -610 l-36 -60 0 347 0 347 -290 0
-290 0 0 -525z"/>
</g>
</svg>
