<?xml version="1.0" standalone="no"?>
<!DOCTYPE svg PUBLIC "-//W3C//DTD SVG 20010904//EN"
 "http://www.w3.org/TR/2001/REC-SVG-20010904/DTD/svg10.dtd">
<svg version="1.0" xmlns="http://www.w3.org/2000/svg"
 width="1024.000000pt" height="1024.000000pt" viewBox="0 0 1024.000000 1024.000000"
 preserveAspectRatio="xMidYMid meet">
<metadata>
Created by potrace 1.14, written by Peter Selinger 2001-2017
</metadata>
<g transform="translate(0.000000,1024.000000) scale(0.100000,-0.100000)"
fill="#000000" stroke="none">
<path d="M7665 9093 c-11 -3 -58 -16 -105 -30 -47 -14 -110 -32 -140 -40 -30
-8 -69 -21 -87 -29 -17 -7 -39 -14 -48 -14 -9 0 -31 -6 -48 -14 -18 -8 -48
-19 -67 -25 -67 -19 -267 -95 -345 -131 -11 -5 -69 -30 -130 -56 -173 -73
-520 -248 -556 -280 -8 -8 -19 -14 -23 -14 -20 0 -155 -87 -187 -120 -34 -38
-36 -41 -57 -197 -13 -87 -22 -171 -22 -188 0 -16 -7 -72 -15 -125 -8 -52 -17
-122 -21 -155 l-7 -60 -13 60 c-26 122 -53 272 -59 330 -7 66 -27 98 -67 108
-20 5 -39 -2 -84 -32 -33 -22 -75 -54 -94 -72 -19 -17 -68 -59 -110 -94 -41
-34 -88 -73 -105 -87 -16 -15 -68 -59 -115 -98 -46 -40 -96 -88 -111 -106 -55
-69 -54 -58 -40 -555 15 -556 18 -599 41 -599 10 0 44 33 76 72 32 40 64 79
71 88 8 8 32 38 56 66 113 136 149 178 264 309 48 55 92 106 98 112 5 7 35 39
65 72 30 32 78 83 105 112 28 30 106 115 175 188 179 193 569 575 670 657 19
16 37 32 40 35 7 9 201 166 268 217 79 60 121 94 141 113 9 9 50 40 91 70 123
90 126 90 38 -2 -35 -35 -109 -114 -164 -174 -56 -61 -128 -137 -159 -170 -31
-33 -112 -121 -179 -195 -66 -74 -132 -146 -146 -160 -14 -14 -38 -41 -54 -60
-15 -19 -49 -57 -75 -85 -25 -27 -69 -77 -96 -110 -28 -32 -57 -66 -65 -76
-15 -16 -70 -81 -131 -154 -47 -57 -62 -73 -80 -93 -8 -9 -44 -53 -79 -97 -35
-44 -68 -84 -74 -90 -16 -14 -152 -186 -227 -285 -35 -47 -67 -89 -71 -95 -4
-5 -28 -36 -53 -67 -25 -31 -45 -59 -45 -63 0 -6 -71 -101 -95 -126 -8 -9 -15
-21 -15 -27 0 -6 -6 -15 -13 -19 -7 -4 -29 -33 -49 -63 -38 -56 -56 -82 -163
-231 -33 -46 -90 -129 -127 -184 -37 -55 -72 -107 -78 -115 -24 -35 -275 -419
-301 -460 -16 -25 -32 -50 -36 -56 -10 -13 -33 -51 -52 -89 -9 -16 -18 -32
-21 -35 -7 -6 -94 -151 -99 -165 -2 -5 -9 -17 -16 -25 -7 -8 -26 -39 -41 -68
-16 -29 -39 -69 -51 -90 -13 -20 -28 -48 -35 -62 -6 -14 -17 -32 -24 -40 -6
-8 -28 -46 -49 -85 -21 -38 -54 -99 -75 -135 -89 -154 -180 -328 -403 -770
-104 -206 -197 -391 -207 -410 -26 -49 -66 -140 -75 -169 -7 -23 -6 -24 26
-17 19 4 78 13 131 21 53 7 100 15 105 18 5 3 49 13 99 21 123 22 246 50 329
76 39 11 90 27 115 34 51 15 187 80 211 102 8 8 19 14 24 14 16 0 152 117 251
215 105 105 184 198 184 219 0 46 -84 68 -343 87 -87 6 -190 16 -228 23 l-71
12 64 21 c35 12 101 31 148 44 47 13 90 26 95 30 6 4 28 10 50 14 22 4 56 13
75 20 19 7 69 23 110 35 229 67 395 134 495 199 74 47 179 166 276 312 140
209 157 250 126 294 -13 17 -27 18 -323 6 -170 -6 -344 -14 -386 -17 -43 -4
-78 -3 -78 2 0 5 28 20 63 33 34 13 76 29 92 37 17 7 145 51 285 98 525 176
596 204 725 287 76 49 218 202 340 364 33 44 62 82 65 85 13 13 87 127 93 143
9 25 -2 47 -31 58 -27 10 -286 -3 -417 -22 -64 -9 -376 -34 -582 -46 -54 -3
-83 -1 -83 5 0 6 10 14 23 18 30 9 105 41 140 59 16 8 33 15 38 15 6 0 29 8
52 19 79 35 322 130 350 137 15 3 27 9 27 13 0 5 25 14 55 21 30 7 55 17 55
22 0 4 7 8 15 8 12 0 203 73 260 100 11 5 70 30 132 54 121 49 243 111 311
160 35 24 115 111 160 171 14 20 59 90 66 105 4 8 18 33 31 55 57 97 167 330
230 490 15 39 34 84 41 100 29 63 43 128 33 147 -15 28 -66 22 -136 -14 -34
-18 -94 -51 -135 -72 -163 -87 -579 -292 -693 -341 -16 -7 -55 -25 -85 -39
-62 -29 -98 -35 -66 -11 11 8 31 25 45 38 59 52 548 407 561 407 5 0 13 6 17
13 4 6 55 44 113 82 121 81 116 77 156 110 18 14 35 25 39 25 4 0 32 19 63 43
32 24 90 67 129 96 107 77 116 91 147 227 52 224 75 357 107 599 24 179 23
201 -2 219 -23 15 -89 20 -134 9z"/>
<path d="M4755 8335 c-5 -2 -78 -11 -162 -20 -84 -8 -163 -19 -175 -24 -13 -4
-45 -12 -73 -15 -70 -11 -329 -78 -370 -96 -11 -5 -40 -17 -65 -25 -136 -48
-166 -61 -335 -141 -116 -55 -224 -120 -247 -148 -23 -27 -23 -84 0 -117 26
-39 77 -79 102 -79 21 0 130 46 140 59 6 7 151 79 225 111 28 12 64 28 80 35
47 21 202 74 315 108 257 78 618 116 915 97 88 -5 165 -10 171 -10 15 0 228
169 231 183 9 41 -232 77 -552 83 -104 2 -194 2 -200 -1z"/>
<path d="M3890 7468 c-13 -15 -20 -35 -20 -62 0 -50 6 -58 49 -80 27 -15 38
-16 62 -6 92 39 69 170 -30 170 -28 0 -46 -6 -61 -22z"/>
<path d="M2847 7433 c-4 -3 -7 -11 -7 -17 0 -6 5 -5 12 2 6 6 9 14 7 17 -3 3
-9 2 -12 -2z"/>
<path d="M3002 7395 c0 -16 2 -22 5 -12 2 9 2 23 0 30 -3 6 -5 -1 -5 -18z"/>
<path d="M3402 7233 c-74 -92 46 -207 129 -124 60 61 21 151 -65 151 -34 0
-47 -5 -64 -27z"/>
<path d="M4689 7232 c-32 -22 -50 -41 -129 -137 -35 -44 -76 -93 -91 -110 -98
-111 -305 -373 -353 -449 -17 -26 -18 -44 -13 -170 3 -78 10 -204 16 -281 11
-154 19 -475 11 -475 -3 0 -22 55 -44 123 -21 67 -44 140 -51 162 -7 22 -23
74 -35 115 -28 99 -51 162 -63 178 -24 31 -64 1 -111 -83 -9 -16 -25 -43 -36
-60 -11 -16 -27 -43 -35 -60 -9 -16 -26 -48 -38 -70 -102 -179 -251 -470 -293
-574 -42 -104 -44 -166 -8 -288 56 -192 67 -230 80 -293 7 -36 19 -95 27 -132
8 -38 11 -68 6 -68 -5 0 -9 5 -9 10 0 6 -12 29 -26 51 -35 56 -154 291 -154
305 0 6 -15 28 -33 48 l-32 38 -20 -22 c-22 -24 -26 -35 -74 -181 -18 -57 -37
-113 -42 -124 -12 -30 -38 -131 -55 -220 -12 -63 -14 -116 -9 -250 3 -93 10
-192 15 -220 32 -187 72 -339 92 -351 13 -8 37 22 73 91 14 28 37 68 50 90 26
43 46 79 77 135 10 19 26 47 36 62 9 15 50 82 89 150 40 68 77 130 83 138 25
38 153 242 187 299 21 35 46 75 55 90 10 14 25 40 34 56 37 67 454 694 559
840 107 149 139 196 152 217 6 12 15 23 20 27 5 3 25 31 45 61 20 30 81 116
136 190 182 245 166 218 154 259 -6 20 -16 73 -22 119 -6 46 -13 89 -16 96 -5
12 -13 76 -48 371 -26 215 -39 277 -60 297 -25 23 -63 23 -97 0z"/>
<path d="M2478 6923 c6 -2 18 -2 25 0 6 3 1 5 -13 5 -14 0 -19 -2 -12 -5z"/>
<path d="M7440 6893 c-38 -14 -90 -97 -90 -144 0 -24 32 -86 92 -176 27 -40
48 -76 48 -79 0 -4 6 -15 14 -23 35 -41 144 -267 209 -436 58 -151 71 -194
133 -435 17 -67 51 -280 59 -371 9 -108 6 -547 -5 -639 -15 -130 -73 -434 -90
-475 -4 -11 -18 -54 -30 -95 -32 -111 -84 -258 -115 -325 -7 -16 -25 -57 -40
-90 -35 -81 -58 -125 -65 -125 -3 0 -5 233 -5 517 -1 285 -2 710 -3 946 l-1
427 -180 0 c-109 0 -182 -4 -186 -10 -3 -5 -1 -10 4 -10 6 0 11 -8 11 -17 0
-12 -3 -14 -8 -6 -4 6 -7 -176 -7 -405 -1 -1301 -7 -1968 -18 -1999 -12 -31
-241 -283 -258 -283 -5 0 -9 312 -9 693 l0 692 -190 0 -190 0 0 -831 c0 -779
-1 -832 -17 -846 -26 -23 -211 -127 -236 -133 l-22 -6 -1 763 0 763 -197 3
-197 2 -2 -852 -3 -853 -55 -13 c-191 -47 -250 -56 -250 -35 0 7 6 10 15 7 13
-5 15 42 17 356 2 199 2 362 1 363 -1 1 -87 1 -192 -1 l-191 -3 2 -398 3 -398
-89 -7 c-49 -3 -113 -6 -143 -6 l-53 0 0 313 c0 173 -2 316 -4 318 -2 2 -91 2
-198 -1 l-193 -5 -1 -298 c-1 -163 -4 -300 -7 -303 -6 -7 -228 33 -269 48 -28
10 -28 11 -28 102 l0 91 -200 0 c-199 0 -200 0 -200 -22 0 -12 7 -29 16 -38
17 -17 14 -17 -61 2 -25 6 -239 106 -285 133 -170 99 -233 130 -266 130 -14 0
-124 -161 -124 -182 0 -8 8 -22 18 -30 42 -37 328 -189 482 -255 212 -93 456
-165 705 -209 44 -7 103 -18 130 -24 112 -22 463 -33 695 -20 123 6 228 14
232 16 5 3 59 14 121 24 114 19 228 43 282 60 17 5 73 22 125 36 52 15 109 33
125 40 17 7 62 25 100 39 39 15 74 31 79 36 6 5 17 9 26 9 18 0 267 124 360
179 128 75 239 150 370 252 233 180 488 454 655 704 33 50 62 92 65 95 10 10
60 90 60 96 0 4 15 32 34 63 47 77 128 241 161 326 15 39 33 84 41 100 7 17
22 59 34 95 11 36 29 92 40 125 54 172 99 389 131 635 14 102 13 615 0 720
-33 262 -77 459 -152 683 -39 115 -52 148 -90 233 -11 23 -19 44 -19 47 0 3
-19 45 -42 94 -35 74 -65 129 -148 273 -50 87 -155 243 -173 255 -21 15 -68
19 -97 8z m57 -1565 c-3 -8 -6 -5 -6 6 -1 11 2 17 5 13 3 -3 4 -12 1 -19z
m-260 -195 c-2 -16 -4 -3 -4 27 0 30 2 43 4 28 2 -16 2 -40 0 -55z m260 -110
c-2 -16 -4 -3 -4 27 0 30 2 43 4 28 2 -16 2 -40 0 -55z m28 -460 c-6 -26 -20
-30 -28 -9 -4 10 -1 13 9 9 12 -4 14 34 16 268 l3 274 3 -260 c1 -143 0 -270
-3 -282z m-35 -45 c0 -4 -57 -7 -127 -6 -106 1 -116 3 -58 7 103 9 185 8 185
-1z m-3605 -2428 c3 -5 -1 -10 -9 -10 -9 0 -16 5 -16 10 0 6 4 10 9 10 6 0 13
-4 16 -10z m52 -26 c-3 -3 -12 -4 -19 -1 -8 3 -5 6 6 6 11 1 17 -2 13 -5z
m1580 -86 c-3 -7 -5 -2 -5 12 0 14 2 19 5 13 2 -7 2 -19 0 -25z m-102 -28
c-16 -4 -39 -8 -50 -8 -16 0 -15 2 5 8 14 4 36 8 50 8 22 0 22 -1 -5 -8z
m-612 -37 c-29 -2 -77 -2 -105 0 -29 2 -6 3 52 3 58 0 81 -1 53 -3z"/>
<path d="M3113 6808 c-28 -13 -47 -68 -38 -108 5 -22 17 -36 44 -49 36 -19 38
-19 78 -1 22 10 43 25 46 34 4 11 20 17 49 18 37 1 39 2 10 5 -25 3 -36 12
-51 42 -11 20 -26 43 -34 50 -22 17 -78 23 -104 9z"/>
<path d="M3660 6773 c-51 -21 -64 -88 -25 -138 35 -46 68 -52 116 -20 39 25
44 39 40 95 -4 51 -75 85 -131 63z"/>
<path d="M3373 6703 c9 -2 25 -2 35 0 9 3 1 5 -18 5 -19 0 -27 -2 -17 -5z"/>
<path d="M3538 6703 c7 -3 16 -2 19 1 4 3 -2 6 -13 5 -11 0 -14 -3 -6 -6z"/>
<path d="M1993 6528 c-69 -75 -265 -525 -298 -688 -4 -19 -11 -41 -15 -50 -29
-55 -76 -321 -96 -540 -16 -176 -13 -571 6 -720 18 -148 48 -307 79 -425 34
-129 119 -384 132 -399 5 -6 9 -16 9 -24 0 -8 9 -33 19 -56 86 -183 141 -292
180 -359 25 -43 51 -85 56 -95 27 -45 144 -220 163 -242 12 -14 35 -43 52 -65
112 -148 198 -240 233 -251 10 -3 25 0 33 7 20 16 94 165 94 189 0 10 -30 53
-67 97 -111 130 -281 369 -316 443 -4 8 -18 33 -32 55 -64 103 -181 365 -235
525 -108 320 -178 765 -166 1060 6 167 30 412 46 479 6 25 17 75 25 111 37
174 87 342 135 455 12 28 25 59 30 70 4 11 35 77 69 146 67 138 75 183 42 233
-44 66 -137 89 -178 44z"/>
<path d="M3080 6483 c-27 -24 -33 -36 -33 -72 0 -58 28 -86 87 -86 35 0 47 5
69 30 34 39 34 77 0 115 -41 45 -83 49 -123 13z"/>
<path d="M2613 6363 c9 -2 23 -2 30 0 6 3 -1 5 -18 5 -16 0 -22 -2 -12 -5z"/>
<path d="M2550 6022 c-37 -37 -40 -86 -8 -127 19 -24 26 -27 69 -23 35 4 54
12 68 29 44 53 10 134 -61 146 -32 5 -41 1 -68 -25z"/>
<path d="M3084 5995 c-35 -14 -44 -31 -44 -81 0 -105 150 -113 176 -9 17 66
-62 120 -132 90z"/>
<path d="M7182 5957 c-31 -33 -29 -80 5 -107 33 -26 68 -20 101 17 58 65 -46
154 -106 90z"/>
<path d="M6809 5459 c-14 -14 -19 -30 -17 -56 8 -89 127 -94 144 -6 13 65 -78
111 -127 62z"/>
<path d="M2579 5420 c-9 -5 -24 -29 -34 -54 -16 -38 -27 -49 -79 -74 l-61 -30
-20 23 c-40 46 -96 40 -134 -13 -18 -26 -19 -34 -10 -63 29 -85 121 -92 165
-14 6 11 40 35 75 53 62 31 65 32 97 17 63 -29 119 -11 142 45 15 35 -2 95
-30 110 -23 12 -90 12 -111 0z"/>
<path d="M6259 4871 c-33 -34 -36 -51 -12 -87 24 -37 58 -47 92 -29 49 25 56
82 15 120 -35 33 -59 31 -95 -4z"/>
<path d="M2274 4862 c-16 -10 -34 -48 -34 -71 0 -70 66 -106 133 -71 36 19 40
19 69 4 18 -9 38 -23 46 -30 7 -8 20 -14 28 -14 8 0 14 -8 14 -18 0 -9 14 -34
31 -55 30 -36 34 -38 82 -35 46 3 53 6 70 36 17 29 18 38 8 74 -8 25 -20 42
-32 45 -10 3 -19 9 -19 14 0 17 -62 9 -91 -11 l-28 -21 -38 24 c-21 13 -48 27
-61 31 -14 5 -29 23 -39 47 -8 22 -24 44 -34 49 -21 12 -89 13 -105 2z"/>
<path d="M6023 4460 c-50 -20 -56 -79 -13 -121 32 -32 57 -33 92 -2 35 31 23
108 -19 124 -28 11 -31 11 -60 -1z"/>
<path d="M2581 4245 c-31 -17 -50 -51 -51 -91 0 -30 25 -64 47 -64 14 0 23
-24 23 -60 0 -20 -10 -35 -35 -54 -29 -22 -35 -33 -35 -64 0 -54 38 -92 91
-92 91 0 117 80 54 163 -19 25 -35 54 -35 64 0 11 16 35 35 53 31 30 36 40 33
75 -2 32 -9 44 -37 62 -38 26 -55 27 -90 8z"/>
<path d="M5410 3970 c-10 -6 -15 -25 -15 -55 0 -37 5 -50 25 -65 36 -28 64
-25 94 11 31 37 33 58 5 93 -15 20 -29 26 -57 26 -20 0 -44 -5 -52 -10z"/>
<path d="M2934 3021 c-16 -25 -42 -69 -59 -98 -16 -28 -65 -112 -109 -185
-111 -187 -276 -502 -276 -525 0 -4 -7 -21 -16 -38 -8 -16 -26 -59 -40 -95
-14 -36 -32 -81 -39 -100 -34 -83 -95 -254 -95 -264 0 -6 -6 -22 -13 -36 -7
-14 -19 -47 -27 -75 -7 -27 -16 -54 -20 -60 -9 -11 -40 -130 -40 -150 0 -7 9
-15 20 -18 19 -5 44 18 170 152 119 127 395 458 435 522 6 9 32 49 59 90 27
41 64 97 82 124 17 28 51 82 76 120 69 107 97 153 117 188 10 18 36 61 58 97
22 36 56 95 76 133 l36 67 -39 25 c-21 13 -50 27 -64 31 -14 3 -26 9 -26 14 0
4 -17 14 -37 23 -21 9 -75 36 -119 60 l-81 43 -29 -45z"/>
</g>
</svg>
